<svg width="21" height="24" viewBox="0 0 21 24" fill="none" xmlns="http://www.w3.org/2000/svg">
<path d="M2.27049 21.0435C2.27049 21.6675 2.34547 22.2459 2.51419 22.7292C2.74292 23.3684 3.13672 23.8287 3.72917 23.9619C3.84919 23.9847 3.97296 23.9999 4.10416 23.9999H16.918C16.9518 23.9999 16.9818 23.9999 17.008 23.9961C18.2305 23.9162 18.7292 22.6264 18.7292 21.0435L19.243 8.41895H1.75671L2.27049 21.0435ZM13.9893 11.2345H16.423V21.1843H13.9893V11.2345ZM9.28295 11.2345H11.7168V21.1843H9.28295V11.2345ZM4.57673 11.2345H7.01427V21.1843H4.57673V11.2345Z" fill="#F65A5A"/>
<path d="M15.705 4.18547C15.7086 4.09041 15.7162 3.9952 15.7162 3.9V3.63759C15.7162 1.63242 14.1075 0 12.1312 0H8.86489C6.8886 0 5.27987 1.63237 5.27987 3.63759V3.9C5.27987 3.9952 5.28735 4.09041 5.29493 4.18547H0V7.119H21V4.18547H15.705ZM13.4662 3.9C13.4662 3.99905 13.455 4.09411 13.4363 4.18547H7.55996C7.5412 4.09411 7.52993 3.99905 7.52993 3.9V3.63759C7.52993 2.89181 8.12987 2.283 8.86493 2.283H12.1312C12.8699 2.283 13.4662 2.89181 13.4662 3.63759V3.9Z" fill="#F65A5A"/>
</svg>
